<mxfile host="app.diagrams.net" modified="2024-06-13T21:19:53.727Z" agent="Mozilla/5.0 (Windows NT 10.0; Win64; x64) AppleWebKit/537.36 (KHTML, like Gecko) Chrome/125.0.0.0 Safari/537.36" version="24.5.4" etag="3piHX0N24rM68jzKQFLa" type="github">
  <diagram name="PÃ¡gina-1" id="yVjk3wEXGGTWFOkeGq1y">
    <mxGraphModel>
      <root>
        <mxCell id="0" />
        <mxCell id="1" parent="0" />
      </root>
    </mxGraphModel>
  </diagram>
</mxfile>
